<svg xmlns="http://www.w3.org/2000/svg" width="34.975" height="23.33" viewBox="0 0 34.975 23.33">
  <path id="Icon_awesome-arrow-left" data-name="Icon awesome-arrow-left" d="M13.755,24.414,12.57,25.6a1.277,1.277,0,0,1-1.811,0L.373,15.22a1.277,1.277,0,0,1,0-1.811L10.758,3.024a1.277,1.277,0,0,1,1.811,0L13.755,4.21a1.284,1.284,0,0,1-.021,1.832L7.3,12.175H33.689a1.279,1.279,0,0,1,1.282,1.282v1.71a1.279,1.279,0,0,1-1.282,1.282H7.3l6.437,6.133A1.274,1.274,0,0,1,13.755,24.414Z" transform="translate(0.004 -2.647)" fill="#ff9016"/>
</svg>
