<svg xmlns="http://www.w3.org/2000/svg" xmlns:xlink="http://www.w3.org/1999/xlink" width="58" height="58" viewBox="0 0 58 58">
  <defs>
    <filter id="Rectangle_569" x="0" y="0" width="58" height="58" filterUnits="userSpaceOnUse">
      <feOffset input="SourceAlpha"/>
      <feGaussianBlur stdDeviation="3" result="blur"/>
      <feFlood flood-opacity="0.282"/>
      <feComposite operator="in" in2="blur"/>
      <feComposite in="SourceGraphic"/>
    </filter>
    <filter id="Path_1372" x="4.937" y="4.937" width="48.126" height="48.126" filterUnits="userSpaceOnUse">
      <feOffset input="SourceAlpha"/>
      <feGaussianBlur stdDeviation="3" result="blur-2"/>
      <feFlood flood-opacity="0.282"/>
      <feComposite operator="in" in2="blur-2"/>
      <feComposite in="SourceGraphic"/>
    </filter>
  </defs>
  <g id="Layer_2" data-name="Layer 2" transform="translate(8.916 8.916)">
    <g id="shopping-bag">
      <g transform="matrix(1, 0, 0, 1, -8.92, -8.92)" filter="url(#Rectangle_569)">
        <rect id="Rectangle_569-2" data-name="Rectangle 569" width="40" height="40" transform="translate(9 9)" fill="#ff9016" opacity="0"/>
      </g>
      <g transform="matrix(1, 0, 0, 1, -8.92, -8.92)" filter="url(#Path_1372)">
        <path id="Path_1372-2" data-name="Path 1372" d="M31.653,9.209,26.917,4.473A5.021,5.021,0,0,0,23.369,3H12.757A5.021,5.021,0,0,0,9.209,4.473L4.473,9.209A5.021,5.021,0,0,0,3,12.757V28.1a5.021,5.021,0,0,0,5.021,5.021H28.1A5.021,5.021,0,0,0,33.126,28.1V12.757a5.021,5.021,0,0,0-1.473-3.548ZM18.063,24.758a6.7,6.7,0,0,1-6.695-6.695,1.674,1.674,0,1,1,3.347,0,3.347,3.347,0,1,0,6.695,0,1.674,1.674,0,0,1,3.347,0A6.7,6.7,0,0,1,18.063,24.758ZM8.707,9.695l2.862-2.862a1.757,1.757,0,0,1,1.188-.485H23.369a1.757,1.757,0,0,1,1.188.485l2.862,2.862Z" transform="translate(10.94 10.94)" fill="#ff9016"/>
      </g>
    </g>
  </g>
</svg>
