<svg xmlns="http://www.w3.org/2000/svg" width="22.089" height="22.089" viewBox="0 0 22.089 22.089">
  <path id="calendar" d="M19.328,2.761h-.92V.92A.921.921,0,0,0,17.488,0h-.92a.921.921,0,0,0-.92.92V2.761h-9.2V.92A.921.921,0,0,0,5.523,0H4.6a.921.921,0,0,0-.921.92V2.761h-.92A2.765,2.765,0,0,0,0,5.522V19.328a2.765,2.765,0,0,0,2.761,2.761H19.328a2.765,2.765,0,0,0,2.761-2.761V5.522a2.765,2.765,0,0,0-2.761-2.761Zm.92,16.567a.922.922,0,0,1-.92.92H2.761a.922.922,0,0,1-.92-.92V9.241H20.249Zm0,0" transform="translate(0)" fill="#292e33" opacity="0.5"/>
</svg>
