<svg id="Group_2102" data-name="Group 2102" xmlns="http://www.w3.org/2000/svg" width="14.384" height="14.383" viewBox="0 0 14.384 14.383">
  <path id="Path_1715" data-name="Path 1715" d="M767.888,327.711c-.11.119-.175.193-.244.262-1.164,1.165-2.335,2.323-3.487,3.5a2.211,2.211,0,0,0-.449.726c-.205.521-.36,1.062-.542,1.592a1.27,1.27,0,0,0,1.633,1.639c.558-.188,1.124-.356,1.672-.568a1.962,1.962,0,0,0,.648-.42c1.174-1.154,2.334-2.324,3.5-3.488.07-.07.144-.137.252-.239.006.1.013.15.013.2,0,2.4.008,4.809-.009,7.214a2.023,2.023,0,0,1-.215.882,1.38,1.38,0,0,1-1.283.768q-4.533.012-9.066,0a1.509,1.509,0,0,1-1.495-1.488q-.014-4.547,0-9.094a1.517,1.517,0,0,1,1.529-1.483c.945-.012,1.89,0,2.835,0h4.708Z" transform="translate(-758.808 -325.402)" fill="#292e33"/>
  <path id="Path_1716" data-name="Path 1716" d="M856.518,313.911l1.773,1.776c-.055.058-.117.126-.183.192q-2.449,2.449-4.9,4.894a1.549,1.549,0,0,1-.538.327c-.489.184-.991.334-1.485.5-.193.067-.4.084-.507-.094a.683.683,0,0,1-.07-.487c.155-.547.346-1.085.533-1.623a.831.831,0,0,1,.185-.306q2.553-2.563,5.114-5.118A.855.855,0,0,1,856.518,313.911Z" transform="translate(-845.435 -312.381)" fill="#292e33"/>
  <path id="Path_1717" data-name="Path 1717" d="M967.747,287.507c.2-.2.428-.422.662-.636a.679.679,0,0,1,.983.009q.408.384.793.794a.674.674,0,0,1,.023.962c-.217.244-.452.471-.67.7Z" transform="translate(-956.015 -286.665)" fill="#292e33"/>
</svg>
