<svg id="Group_2589" data-name="Group 2589" xmlns="http://www.w3.org/2000/svg" width="29.069" height="29.07" viewBox="0 0 29.069 29.07">
  <path id="Path_2101" data-name="Path 2101" d="M187.41.018c-.03,0-.056-.018-.087-.018H174.3a3.638,3.638,0,0,0-3.634,3.634V4.845a1.211,1.211,0,1,0,2.422,0V3.634A1.213,1.213,0,0,1,174.3,2.423h5.643l-.369.124a2.435,2.435,0,0,0-1.64,2.3V23.014H174.3A1.213,1.213,0,0,1,173.09,21.8V19.38a1.211,1.211,0,0,0-2.422,0V21.8a3.638,3.638,0,0,0,3.634,3.634h3.634v1.211a2.425,2.425,0,0,0,2.422,2.423,2.541,2.541,0,0,0,.772-.12l7.277-2.426a2.434,2.434,0,0,0,1.641-2.3V2.423a2.427,2.427,0,0,0-2.638-2.4Zm0,0" transform="translate(-160.979)" fill="#fff"/>
  <path id="Path_2102" data-name="Path 2102" d="M12.969,111.863l-4.845-4.845a1.211,1.211,0,0,0-2.068.856v3.634H1.211a1.211,1.211,0,0,0,0,2.423H6.056v3.634a1.211,1.211,0,0,0,2.068.856l4.845-4.845a1.21,1.21,0,0,0,0-1.713Zm0,0" transform="translate(0 -100.606)" fill="#fff"/>
</svg>
