<svg xmlns="http://www.w3.org/2000/svg" width="261.153" height="261.115" viewBox="0 0 261.153 261.115">
  <g id="Group_2690" data-name="Group 2690" transform="translate(0.001 0)">
    <path id="Path_2141" data-name="Path 2141" d="M631.027,550.817H616.236c-3.358-.385-6.726-.691-10.072-1.165-28.726-4.071-53.6-16.1-74.276-36.476a127.766,127.766,0,0,1-37.106-70.949c-.844-4.916-1.33-9.894-1.98-14.844V413.1c.161-.989.4-1.972.469-2.967a124.478,124.478,0,0,1,8.448-37.37c23.964-60.421,87.172-93.948,150.422-79.871,70.54,15.7,115.161,87.347,98.217,157.707A130.468,130.468,0,0,1,642.09,549.395C638.411,549.928,634.715,550.346,631.027,550.817ZM520.3,419.448A103.157,103.157,0,0,0,623.463,523.3c56.628-.028,102.921-46.19,103.032-102.134.114-57.846-46.321-103.962-103.078-103.984S520.158,363.392,520.3,419.448Z" transform="translate(-492.803 -289.701)" fill="#fff"/>
    <path id="Path_2142" data-name="Path 2142" d="M659.956,472.643q0-19.886-.012-39.77c-.006-3.756.814-7.1,4.2-9.272a8.8,8.8,0,0,1,9.177-.576,20.831,20.831,0,0,1,2.8,1.753q27.554,19.731,55.106,39.468c3.164,2.26,5.319,4.958,5.109,9.069a9.2,9.2,0,0,1-4.126,7.26q-28.566,20.508-57.152,40.986a9.151,9.151,0,0,1-10.082.93c-3.713-1.921-5.04-5.269-5.032-9.314Q659.985,492.909,659.956,472.643Z" transform="translate(-559.187 -342.248)" fill="#fff"/>
  </g>
</svg>
