<svg xmlns="http://www.w3.org/2000/svg" width="451.064" height="451.064" viewBox="0 0 451.064 451.064">
  <path id="Icon_awesome-phone" data-name="Icon awesome-phone" d="M12.41,16.421,81.8.407a16.118,16.118,0,0,1,18.35,9.275l32.028,74.733a15.973,15.973,0,0,1-4.6,18.683l-40.436,33.1A247.293,247.293,0,0,0,205.381,254.431L238.477,214a16,16,0,0,1,18.683-4.6l74.733,32.028a16.2,16.2,0,0,1,9.342,18.416L325.22,329.23a16.009,16.009,0,0,1-15.614,12.411C138.722,341.641,0,203.186,0,32.035A16,16,0,0,1,12.41,16.421Z" transform="matrix(0.914, 0.407, -0.407, 0.914, 138.959, 0.001)" fill="#ff9016"/>
</svg>
