<svg xmlns="http://www.w3.org/2000/svg" width="273.129" height="273.098" viewBox="0 0 273.129 273.098">
  <path id="Icon_ionic-ios-send" data-name="Icon ionic-ios-send" d="M269.023,5.114,7.892,118.928A5.986,5.986,0,0,0,8.1,129.812l70.636,39.906a11.389,11.389,0,0,0,13.017-1.28L231.037,48.364c.925-.782,3.13-2.276,3.983-1.423.925.925-.5,3.059-1.28,3.983L113.24,186.647a11.351,11.351,0,0,0-1.138,13.586l46.166,74.05a6.008,6.008,0,0,0,10.812-.142L277.061,13.01A5.987,5.987,0,0,0,269.023,5.114Z" transform="translate(-4.503 -4.503)" fill="#ff9016"/>
</svg>
