<svg xmlns="http://www.w3.org/2000/svg" width="734.746" height="508.671" viewBox="0 0 734.746 508.671">
  <g id="Icon_ionic-ios-mail" data-name="Icon ionic-ios-mail" transform="translate(-3.375 -7.875)">
    <path id="Path_1" data-name="Path 1" d="M732.116,11.4,542.071,204.978a3.415,3.415,0,0,0,0,4.945l133,141.651a22.919,22.919,0,0,1,0,32.5,23.026,23.026,0,0,1-32.5,0L510.1,242.951a3.625,3.625,0,0,0-5.122,0L472.659,275.8a142.208,142.208,0,0,1-101.381,42.742c-39.033.177-76.124-16.249-103.5-43.979l-31.085-31.615a3.625,3.625,0,0,0-5.122,0L99.1,384.072a23.026,23.026,0,0,1-32.5,0,22.919,22.919,0,0,1,0-32.5l133-141.651a3.76,3.76,0,0,0,0-4.945L9.38,11.4a3.481,3.481,0,0,0-6.005,2.473V401.2a56.685,56.685,0,0,0,56.519,56.519H681.6A56.685,56.685,0,0,0,738.121,401.2V13.873A3.534,3.534,0,0,0,732.116,11.4Z" transform="translate(0 58.822)" fill="#ff9016"/>
    <path id="Path_2" data-name="Path 2" d="M350.228,331.269A96.023,96.023,0,0,0,419.287,302.3L696.406,20.239A55.509,55.509,0,0,0,661.435,7.875H39.2A55.144,55.144,0,0,0,4.226,20.239L281.345,302.3A96.034,96.034,0,0,0,350.228,331.269Z" transform="translate(20.52)" fill="#ff9016"/>
  </g>
</svg>
