<svg id="Group_2691" data-name="Group 2691" xmlns="http://www.w3.org/2000/svg" width="24.997" height="25.002" viewBox="0 0 24.997 25.002">
  <text id="_5" data-name="5" transform="translate(12.733 17)" fill="#fff" font-size="12" font-family="SofiaPro-Light, Sofia Pro" font-weight="300" letter-spacing="-0.025em"><tspan x="-3.366" y="0">5</tspan></text>
  <g id="Group_2675" data-name="Group 2675">
    <path id="Path_2152" data-name="Path 2152" d="M708.265,696.4c-.5-.5-1.009-1.015-1.519-1.533a1.132,1.132,0,0,0-.958-.37,1.118,1.118,0,0,0-1.024,1.131q-.011,2.277,0,4.553a1.094,1.094,0,0,0,1.093,1.112c1.536.012,3.07.009,4.606,0a1.127,1.127,0,0,0,.786-1.914c-.411-.428-.844-.835-1.319-1.3.469-.219.882-.436,1.313-.606a10.222,10.222,0,1,1-6.324,11.243,14.564,14.564,0,0,1-.153-1.666,1.142,1.142,0,1,0-2.28.03,12.5,12.5,0,1,0,14.963-12.342,12.317,12.317,0,0,0-8.979,1.58c-.038.023-.076.044-.115.064A.472.472,0,0,1,708.265,696.4Z" transform="translate(-702.485 -694.484)" fill="#fff"/>
  </g>
</svg>
