<svg version="1.2" xmlns="http://www.w3.org/2000/svg" viewBox="0 0 1223 309" width="1223" height="309">
	<title>logo-nw-svg</title>
	<style>
		.s0 { fill: #ff8517 } 
		.s1 { fill: #ffffff;stroke: #ffffff;stroke-width: 1.4 } 
	</style>
	<g id="Folder 1">
		<path id="Layer" class="s0" d="m0.7 21h52.3v79.8h64.1v-79.8h52.2v211.1h-52.2v-89.5h-64.1v89.5h-52.3z"/>
		<path id="Layer" class="s0" d="m418 179.9q-0.1 0.7-0.2 1.4q-0.1 0.8-0.2 1.5q-0.1 0.8-0.1 1.5q-0.1 0.8-0.1 1.5c0 12.2 11.6 19.7 25.3 19.7c14.4 0 21.6-5.3 21.6-15c0-8.4-12.2-11.9-28.2-16.6c-24.4-7.2-54.7-17.5-54.7-53.5c0-31.2 22.8-48.1 62.9-48.1c37.5 0 64.7 14.7 64.7 40q0 1.4-0.1 2.8q-0.1 1.5-0.3 2.9q-0.2 1.4-0.5 2.8q-0.3 1.4-0.6 2.7l-45 4.1q0.3-1.1 0.6-2.3q0.3-1.2 0.5-2.3q0.2-1.2 0.3-2.4q0.1-1.2 0.1-2.4c0-10.3-7.8-15.6-19.4-15.6c-10.9 0-17.5 5-17.5 12.8c0 10 9.4 14.4 22.8 18.5c25.4 7.5 60.7 13.7 60.7 51.6c0 34.1-28.8 50.3-68.5 50.3c-32.5 0-64.7-10.9-64.7-41.9q0-1.3 0-2.7q0.1-1.3 0.2-2.6q0.1-1.4 0.3-2.7q0.2-1.3 0.4-2.6z"/>
		<path id="Layer" class="s0" d="m627.2 130.8c0-14.1-5.3-19.8-17.2-19.8c-10.3 0.1-17.8 4.1-24.4 10.7v110.4h-50.4v-223.6h50.4v90c8.4-14.4 21.6-26.2 43.8-26.2c26.9 0 48.1 15.6 48.1 48.4v111.4h-50.3z"/>
		<path id="Layer" class="s0" d="m708.2 8.5h50.4v119.8l46.2-52.3h52.9l-52.2 58.2l54.1 97.9h-56.3l-34.1-62.9l-10.7 12.2v50.7h-50.3z"/>
		<path id="Layer" class="s0" d="m874 76h50.4v156.1h-50.4zm0.6-72.3h48.8v44.1h-48.8z"/>
		<path id="Layer" class="s0" d="m943.7 76h23.5v-18.7c0-34.1 15.9-57.3 60.3-57.3c47.9 0 64.8 22.8 54.8 52.2l-42.6 4.7c5.7-20 0.7-25-9-25c-10 0-13.2 6.9-13.2 25v19.1h42.9v31.6h-42.9v124.5h-50.3v-124.5h-23.5z"/>
		<path id="Layer" fill-rule="evenodd" class="s0" d="m1132.3 140.8c11.6 0 18.8 2.8 22.2 4.6v-20.9c0-15.3-5.3-21.9-16.9-21.9c-17.2 0-18.1 14.4-14.7 26.9l-46.6-5.3c-8.7-36.9 25.7-51.9 64.5-51.9c43.4 0 63.1 19 63.1 52.2v61.3c0 7.2 2.2 10.6 6.3 10.6c5 0 10-5.3 10-5.3l2.5 33.2c0 0-14.1 10-32.9 10c-18.4 0-28.4-9.4-31.9-24.1c-8.4 17.8-26.5 25.6-43.4 25.6c-26.6 0-46.3-19.4-46.3-45c0-34.4 33.8-50 64.1-50zm22.2 50.6v-23.4c-2.5 0-5.3-0.3-8.1-0.3c-17.9 0-30 5.9-30 19.4c0 9.7 5.9 15 16.2 15c9.4 0 16-4.1 21.9-10.7z"/>
		<path id="Layer" class="s1" d="m257.2 186.7v-63.3c0-0.6 0.2-1.2 0.6-1.8c0.3-0.5 0.8-0.9 1.4-1.2c0.6-0.2 1.3-0.3 1.9-0.1c0.6 0.1 1.2 0.4 1.7 0.9l44.8 31.6q0.5 0.4 0.7 1q0.3 0.6 0.3 1.2q0 0.7-0.3 1.3q-0.2 0.6-0.7 1l-44.8 31.7c-0.5 0.5-1.1 0.8-1.7 0.9c-0.6 0.1-1.3 0-1.9-0.2c-0.6-0.3-1.1-0.7-1.4-1.2c-0.4-0.6-0.6-1.2-0.6-1.8z"/>
		<path id="Layer" class="s1" d="m426.3 274.3h-20.7l-1.7 8.3h19l-1.5 6.8h-19l-2.1 10h21.6l-1.5 7h-29.6l8.3-39.1h28.7z"/>
		<path id="Layer" class="s1" d="m465.6 267.4h8.5l-21.7 39.1h-7.7l-4.9-39.1h8.7l2.2 29.7z"/>
		<path id="Layer" class="s1" d="m513.9 274.3h-20.7l-1.7 8.3h19l-1.5 6.8h-19l-2.1 10h21.6l-1.5 7h-29.6l8.3-39.1h28.7z"/>
		<path id="Layer" fill-rule="evenodd" class="s1" d="m558.9 271.1q0.3 0.4 0.5 0.8q0.2 0.4 0.3 0.8q0.2 0.4 0.3 0.9q0.1 0.4 0.2 0.8q0.1 0.5 0.2 1q0 0.6 0 1.1q0 0.5-0.1 1q-0.1 0.5-0.2 1q-0.2 0.8-0.4 1.5q-0.3 0.7-0.6 1.4q-0.3 0.7-0.7 1.3q-0.4 0.7-0.9 1.3q-0.5 0.7-1.1 1.3q-0.6 0.6-1.3 1q-0.7 0.5-1.4 0.9q-0.8 0.4-1.6 0.6q0.5 0.2 1 0.5q0.5 0.3 0.9 0.7q0.4 0.4 0.7 0.9q0.3 0.5 0.5 1q0.8 2-0.1 6.1l-0.6 2.6q-0.1 0.5-0.2 0.9q-0.1 0.5-0.1 0.9q-0.1 0.5-0.2 0.9q0 0.5 0 1q-0.1 0.3 0 0.6q0 0.3 0.2 0.6q0.1 0.3 0.3 0.5q0.2 0.3 0.5 0.5l-0.2 1h-9q-0.1-1.3-0.1-2.1q0-0.5 0-0.9q0-0.4 0.1-0.8q0-0.4 0.1-0.9q0.1-0.4 0.1-0.8l0.8-3.6q0.7-3.8-0.3-5q-1.1-1.3-4.7-1.3h-8.4l-3.2 15.4h-8l8.3-39.1h19.1q0.8 0 1.6 0q0.8 0.1 1.5 0.2q0.8 0.1 1.5 0.3q0.8 0.2 1.5 0.5q0.5 0.2 1 0.5q0.4 0.3 0.8 0.6q0.4 0.4 0.8 0.8q0.3 0.4 0.6 0.8zm-21.9 3.1l-2.2 10.5h9.2q0.5 0 1.1 0q0.5-0.1 1.1-0.1q0.5-0.1 1-0.3q0.5-0.1 1.1-0.3q0.6-0.2 1.2-0.7q0.6-0.4 1-1q0.5-0.6 0.8-1.3q0.2-0.6 0.4-1.4q0.7-3.5-1.4-4.7q-0.4-0.2-0.9-0.4q-0.5-0.1-1-0.2q-0.5-0.1-1-0.1q-0.4-0.1-0.9 0z"/>
		<path id="Layer" class="s1" d="m597.4 267.4h9.2l-18.2 24.4l-3.1 14.7h-8.2l3.1-14.7l-8.3-24.4h9.6l4.5 17z"/>
		<path id="Layer" fill-rule="evenodd" class="s1" d="m641.4 303q-5.4 4.6-13.8 4.6q-8.3 0-11.8-4.6q-4.7-5.6-2.5-16.1q2.3-10.7 9.4-16.1q5.3-4.6 13.7-4.6q8.4 0 11.9 4.6q4.7 5.4 2.5 16.1q-2.3 10.5-9.4 16.1zm1.2-16.1q1.4-6.6-0.7-10.2q-2.1-3.6-6.9-3.6q-1.2 0-2.4 0.3q-1.2 0.2-2.3 0.7q-1 0.4-2 1.1q-1 0.7-1.8 1.5q-3.7 3.6-5.1 10.2q-1.4 6.6 0.7 10.2q2.2 3.5 7 3.5q1.2 0.1 2.4-0.2q1.1-0.2 2.2-0.7q1.1-0.4 2.1-1.1q1-0.7 1.8-1.5q3.6-3.6 5-10.2z"/>
		<path id="Layer" class="s1" d="m668.6 267.4h8.5l9.8 27.3l5.8-27.3h7.6l-8.3 39.1h-8.2l-10-27.8l-5.9 27.8h-7.6z"/>
		<path id="Layer" class="s1" d="m742.9 274.3h-20.7l-1.7 8.3h19l-1.5 6.8h-19l-2.1 10h21.6l-1.5 7h-29.6l8.3-39.1h28.7z"/>
		<path id="Layer" class="s1" d="m773.6 306.5l8.3-39.1h8.1l-3.2 14.9h15.3l3.2-14.9h8.1l-8.3 39.1h-8.1l3.7-17.5h-15.3l-3.7 17.4z"/>
		<path id="Layer" fill-rule="evenodd" class="s1" d="m840 267.4h9.2l5.6 39.1h-8.9l-0.8-8h-14.5l-4.3 8h-8.6zm-5.7 24.3h10l-1.7-15.4z"/>
		<path id="Layer" class="s1" d="m875.7 294.4q-0.1 0.5-0.1 1q0.1 0.5 0.1 1q0.1 0.6 0.3 1q0.1 0.5 0.3 1q1.5 2.4 6.3 2.4q0.7 0 1.3 0q0.6 0 1.2-0.1q0.6-0.1 1.2-0.2q0.6-0.1 1.2-0.3q0.8-0.2 1.5-0.6q0.7-0.5 1.3-1.1q0.6-0.6 1-1.3q0.4-0.7 0.5-1.5q0.2-0.5 0.1-0.9q0-0.4-0.1-0.8q-0.1-0.4-0.4-0.8q-0.3-0.3-0.6-0.5q-0.6-0.4-1.2-0.7q-0.6-0.3-1.2-0.5q-0.6-0.2-1.3-0.4q-0.6-0.2-1.3-0.3l-3.9-0.9q-5.8-1.4-7.8-3q-3.4-2.7-2.1-8.5q0.2-1.3 0.7-2.5q0.6-1.2 1.3-2.3q0.7-1.2 1.6-2.1q0.9-1 2-1.8q4.6-3.5 12-3.4q6.2 0 9.8 3.2q3.7 3.3 2.6 9.5h-7.8q0.5-3.5-2-5q-0.6-0.3-1.1-0.5q-0.6-0.2-1.2-0.3q-0.5-0.1-1.1-0.2q-0.6 0-1.2 0q-0.7 0-1.4 0q-0.7 0.1-1.3 0.3q-0.7 0.1-1.3 0.4q-0.7 0.2-1.3 0.6q-0.5 0.2-0.9 0.6q-0.5 0.4-0.8 0.9q-0.4 0.4-0.6 0.9q-0.2 0.6-0.3 1.1q-0.2 0.5-0.2 0.9q0 0.5 0.2 0.9q0.2 0.4 0.5 0.8q0.3 0.3 0.7 0.6q0.5 0.2 1.1 0.5q0.6 0.2 1.2 0.4q0.6 0.2 1.2 0.4q0.6 0.1 1.2 0.3l6.4 1.6q0.8 0.1 1.6 0.4q0.8 0.3 1.6 0.6q0.8 0.4 1.5 0.8q0.7 0.5 1.4 1q2.9 2.8 1.8 8q-0.3 1.4-0.9 2.6q-0.5 1.3-1.3 2.4q-0.8 1.2-1.7 2.2q-1 0.9-2.1 1.7q-4.9 3.5-12.4 3.6q-7.6-0.1-11.2-3.5q-3.7-3.5-2.4-9.6z"/>
		<path id="Layer" fill-rule="evenodd" class="s1" d="m951.2 267.4h9.3l5.5 39.1h-8.9l-0.8-8h-14.4l-4.4 8h-8.5zm-5.7 24.3h9.9l-1.6-15.4z"/>
		<path id="Layer" class="s1" d="m1007.7 294.4q-0.1 0.5-0.1 1q0 0.5 0.1 1q0.1 0.6 0.2 1q0.2 0.5 0.4 1q1.5 2.4 6.3 2.4q0.6 0 1.2 0q0.6 0 1.2-0.1q0.6-0.1 1.2-0.2q0.6-0.1 1.2-0.3q0.8-0.2 1.6-0.6q0.7-0.5 1.3-1.1q0.5-0.6 0.9-1.3q0.4-0.7 0.6-1.5q0.1-0.5 0.1-0.9q0-0.4-0.1-0.8q-0.2-0.4-0.4-0.8q-0.3-0.3-0.7-0.5q-0.5-0.4-1.1-0.7q-0.6-0.3-1.2-0.5q-0.7-0.2-1.3-0.4q-0.6-0.2-1.3-0.3l-3.9-0.9q-5.8-1.4-7.8-3q-3.4-2.7-2.2-8.5q0.3-1.3 0.8-2.5q0.5-1.2 1.3-2.3q0.7-1.2 1.6-2.1q0.9-1 2-1.8q4.6-3.5 12-3.4q6.2 0 9.8 3.2q3.7 3.3 2.6 9.5h-7.9q0.6-3.5-2-5q-0.5-0.2-1-0.4q-0.6-0.2-1.2-0.4q-0.5-0.1-1.1-0.2q-0.6 0-1.2 0q-0.7 0-1.4 0.1q-0.7 0-1.3 0.2q-0.7 0.2-1.4 0.4q-0.6 0.3-1.2 0.6q-0.5 0.3-0.9 0.6q-0.5 0.4-0.8 0.9q-0.4 0.4-0.6 1q-0.2 0.5-0.4 1q-0.1 0.5-0.1 0.9q0 0.5 0.2 0.9q0.2 0.4 0.5 0.8q0.2 0.3 0.6 0.6q0.6 0.3 1.2 0.5q0.6 0.2 1.2 0.4q0.6 0.2 1.2 0.4q0.6 0.2 1.2 0.3l6.4 1.6q0.8 0.2 1.6 0.4q0.8 0.3 1.6 0.6q0.7 0.4 1.5 0.9q0.7 0.4 1.3 0.9q3 2.8 1.8 8q-0.2 1.4-0.8 2.7q-0.5 1.2-1.3 2.4q-0.8 1.1-1.7 2.1q-1 1-2.2 1.7q-4.8 3.6-12.3 3.6c-5 0-8.8-1.2-11.2-3.5q-3.7-3.5-2.4-9.6z"/>
		<path id="Layer" class="s1" d="m1079.7 267.4l-1.5 6.9h-11.7l-6.8 32.2h-8.2l6.8-32.2h-11.7l1.5-6.9z"/>
		<path id="Layer" fill-rule="evenodd" class="s1" d="m1113.6 303q-5.3 4.6-13.7 4.6q-8.4 0-11.9-4.6q-4.7-5.6-2.5-16.1q2.3-10.7 9.4-16.1q5.3-4.6 13.7-4.6q8.4 0 11.9 4.6q4.7 5.4 2.5 16.1q-2.3 10.5-9.4 16.1zm1.2-16.1q1.4-6.6-0.7-10.2q-2.1-3.6-6.9-3.6q-1.2 0-2.4 0.3q-1.1 0.2-2.2 0.7q-1.1 0.4-2.1 1.1q-1 0.7-1.8 1.5q-3.7 3.6-5 10.2q-1.4 6.6 0.7 10.2c1.4 2.4 3.7 3.5 7 3.5q1.2 0.1 2.4-0.2q1.1-0.2 2.2-0.7q1.1-0.4 2.1-1.1q0.9-0.7 1.8-1.5q3.5-3.6 4.9-10.2z"/>
		<path id="Layer" fill-rule="evenodd" class="s1" d="m1169.6 271.1q0.2 0.4 0.4 0.8q0.2 0.4 0.4 0.8q0.1 0.4 0.3 0.9q0.1 0.4 0.2 0.8q0.1 0.5 0.1 1q0 0.6 0 1.1q0 0.5-0.1 1q0 0.5-0.1 1q-0.2 0.8-0.5 1.5q-0.2 0.7-0.6 1.4q-0.3 0.7-0.7 1.3q-0.4 0.7-0.8 1.3q-0.5 0.7-1.1 1.3q-0.7 0.6-1.3 1q-0.7 0.5-1.5 0.9q-0.8 0.4-1.6 0.6q0.6 0.2 1 0.5q0.5 0.3 0.9 0.7q0.4 0.4 0.8 0.9q0.3 0.5 0.5 1q0.7 2-0.2 6.1l-0.5 2.6q-0.1 0.5-0.2 0.9q-0.1 0.5-0.2 0.9q-0.1 0.5-0.1 0.9q-0.1 0.5-0.1 1q0 0.3 0 0.6q0.1 0.3 0.2 0.6q0.1 0.3 0.3 0.5q0.2 0.3 0.5 0.5l-0.2 1h-9q-0.1-1.3-0.1-2.1q0-0.5 0-0.9q0.1-0.4 0.1-0.8q0.1-0.4 0.1-0.9q0.1-0.4 0.2-0.8l0.7-3.6q0.7-3.8-0.3-5q-1.1-1.3-4.7-1.3h-8.4l-3.2 15.4h-8l8.3-39.1h19.1q0.8 0 1.6 0q0.7 0.1 1.5 0.2q0.8 0.1 1.5 0.3q0.8 0.2 1.5 0.5q0.5 0.2 1 0.5q0.4 0.3 0.8 0.6q0.4 0.4 0.8 0.8q0.4 0.4 0.7 0.8zm-22 3.1l-2.2 10.5h9.3q0.5 0 1 0q0.6-0.1 1.1-0.1q0.6-0.1 1.1-0.3q0.5-0.1 1-0.3q0.7-0.2 1.3-0.7q0.5-0.4 1-1q0.4-0.6 0.7-1.3q0.3-0.6 0.4-1.4q0.8-3.5-1.3-4.7q-0.5-0.2-1-0.4q-0.4-0.1-0.9-0.2q-0.5-0.1-1-0.1q-0.5-0.1-1 0z"/>
		<path id="Layer" class="s1" d="m1208 267.4h9.3l-18.3 24.4l-3.1 14.7h-8.2l3.1-14.7l-8.3-24.4h9.6l4.5 17z"/>
		<path id="Layer" fill-rule="evenodd" class="s0" d="m359.4 250.5c0 2.1 0 10 0 17.3c0 1.1-0.4 2.1-1 3c-0.6 0.9-1.4 1.6-2.4 2c-1 0.4-2.1 0.5-3.2 0.3c-1-0.2-2-0.8-2.7-1.6c-4.4-4.5-9-9.2-10.5-10.5c-20.3-18.1-45.4-21.4-69.5-22.4c-37.4-1.4-69.1-26.3-78.9-61.8c-1.5-5.6-2.4-11.3-2.8-17.1c-0.4-5.7-0.2-11.5 0.6-17.2c0.8-5.8 2.2-11.4 4.1-16.8c1.9-5.5 4.3-10.7 7.3-15.7c11.8-20 30.2-33.8 51.9-38.9c24.2-5.7 48.7-1.7 69.1 11.3c4.6 3 9 6.4 13 10.2c4 3.9 7.5 8.1 10.7 12.7c3.1 4.6 5.7 9.4 7.9 14.5c2.1 5.1 3.8 10.4 4.8 15.9c2.7 13.3 1.5 102.3 1.6 114.8zm-19.6-96.1c-0.1-18.3-6.7-35-18.9-47.1c-12.2-12.1-29.1-18.7-47.7-18.7h-0.4c-34.4 0.1-64 28.5-64.7 62c-0.8 36.8 26.2 66.8 61.5 68.2c20.1 0.8 43.2 3.3 65.1 14.6q0.8 0.4 1.7 0.4q0.9-0.1 1.7-0.5q0.7-0.5 1.2-1.2q0.4-0.8 0.4-1.7q0-6.7 0-13.4c0.1-20.6 0.1-41.8 0.1-62.6z"/>
	</g>
</svg>