<svg id="Layer_1" data-name="Layer 1" xmlns="http://www.w3.org/2000/svg" viewBox="0 0 1513.43 615.56"><defs><style>.cls-1{fill:#ff8517;}.cls-2,.cls-3{fill:#fff;stroke:#fff;stroke-miterlimit:10;}.cls-2{stroke-width:1.36px;}.cls-3{stroke-width:1.37px;}</style></defs><path class="cls-1" d="M145.74,175H198v79.75h64.11V175h52.23V386.09H262.08V296.64H198v89.45H145.74Z"/><path class="cls-1" d="M563,333.86a43.13,43.13,0,0,0-.63,5.94c0,12.2,11.58,19.7,25.34,19.7,14.38,0,21.58-5.31,21.58-15,0-8.44-12.2-11.88-28.15-16.57-24.4-7.2-54.73-17.52-54.73-53.49,0-31.27,22.83-48.16,62.86-48.16,37.53,0,64.74,14.7,64.74,40a42,42,0,0,1-1.56,11.26l-45,4.07a34.17,34.17,0,0,0,1.56-9.39c0-10.32-7.81-15.63-19.39-15.63-10.94,0-17.51,5-17.51,12.82,0,10,9.38,14.39,22.83,18.45,25.33,7.51,60.68,13.76,60.68,51.61,0,34.09-28.78,50.35-68.5,50.35-32.53,0-64.74-10.94-64.74-41.91a63.31,63.31,0,0,1,.94-10.63Z"/><path class="cls-1" d="M772.19,284.76c0-14.08-5.31-19.71-17.2-19.71-10.32,0-17.83,4.07-24.39,10.63V386.09H680.24V162.47H730.6v90.07c8.44-14.39,21.58-26.27,43.78-26.27,26.9,0,48.17,15.64,48.17,48.48V386.09H772.19Z"/><path class="cls-1" d="M853.2,162.47h50.35V282.25L949.84,230h52.86L950.47,288.2l54.1,97.89H948.28l-34.09-62.87-10.64,12.2v50.67H853.2Z"/><path class="cls-1" d="M1019,230h50.36V386.09H1019Zm.63-72.25h48.79v44.1h-48.79Z"/><path class="cls-1" d="M1088.71,230h23.45V211.26c0-34.09,15.95-57.24,60.37-57.24,47.85,0,64.74,22.83,54.73,52.23l-42.54,4.69c5.63-20,.63-25-9.07-25-10,0-13.13,6.88-13.13,25V230h42.84v31.59h-42.84V386.09h-50.36V261.61h-23.45Z"/><path class="cls-1" d="M1277.3,294.76c11.57,0,18.77,2.82,22.21,4.69V278.5c0-15.33-5.32-21.89-16.89-21.89-17.2,0-18.14,14.38-14.7,26.89l-46.6-5.31c-8.76-36.91,25.64-51.92,64.43-51.92,43.47,0,63.17,19.08,63.17,52.23v61.3c0,7.19,2.19,10.63,6.26,10.63,5,0,10-5.31,10-5.31l2.5,33.15s-14.08,10-32.84,10c-18.45,0-28.46-9.38-31.9-24.08-8.45,17.82-26.59,25.64-43.48,25.64-26.58,0-46.28-19.39-46.28-45C1213.19,310.4,1247,294.76,1277.3,294.76Zm22.21,50.67V322c-2.51,0-5.32-.31-8.14-.31-17.82,0-30,5.94-30,19.39,0,9.7,5.94,15,16.26,15C1287,356.06,1293.56,352,1299.51,345.43Z"/><path class="cls-2" d="M402.24,340.66V277.44a3.23,3.23,0,0,1,5.52-2.29l44.87,31.61a3.25,3.25,0,0,1,0,4.58L407.76,343A3.24,3.24,0,0,1,402.24,340.66Z"/><path class="cls-3" d="M571.31,428.31H550.64l-1.75,8.29h19l-1.46,6.79h-19l-2.12,10h21.63l-1.49,7h-29.6l8.3-39.07h28.64Z"/><path class="cls-3" d="M610.58,421.39h8.48l-21.63,39.07h-7.71l-4.9-39.07h8.72l2.17,29.66Z"/><path class="cls-3" d="M658.9,428.31H638.23l-1.74,8.29h19L654,443.39H635l-2.12,10h21.62l-1.48,7h-29.6l8.29-39.07h28.65Z"/><path class="cls-3" d="M703.92,425.13a9.39,9.39,0,0,1,1.31,3.29,10.31,10.31,0,0,1-.12,4.11,14.35,14.35,0,0,1-2.58,5.47,10.53,10.53,0,0,1-5.45,3.8,5.37,5.37,0,0,1,3.17,3.09c.47,1.33.41,3.37-.17,6.1l-.56,2.63a22.11,22.11,0,0,0-.56,3.63,2.53,2.53,0,0,0,1,2.22l-.18,1h-9c-.07-.87-.1-1.57-.1-2.1a18,18,0,0,1,.37-3.36l.71-3.63q.75-3.74-.3-5c-.7-.83-2.25-1.24-4.65-1.24H678.4l-3.23,15.32h-8l8.3-39.07h19.16a16.09,16.09,0,0,1,6.09,1A7.43,7.43,0,0,1,703.92,425.13ZM682,428.18l-2.22,10.49H689a11.42,11.42,0,0,0,4.26-.63,5.73,5.73,0,0,0,3.4-4.4q.73-3.56-1.36-4.77a8,8,0,0,0-3.84-.69Z"/><path class="cls-3" d="M742.39,421.39h9.25l-18.26,24.38-3.1,14.69h-8.16l3.1-14.69-8.32-24.38h9.62l4.48,17Z"/><path class="cls-3" d="M786.4,457q-5.39,4.56-13.75,4.56c-5.59,0-9.53-1.52-11.85-4.56q-4.74-5.58-2.49-16.11,2.28-10.72,9.35-16.11,5.39-4.56,13.76-4.56t11.84,4.56q4.77,5.39,2.49,16.11Q793.5,451.4,786.4,457Zm1.19-16.11q1.38-6.57-.7-10.16c-1.39-2.4-3.7-3.59-6.93-3.59a11.73,11.73,0,0,0-8.49,3.58q-3.65,3.57-5.05,10.17t.71,10.18c1.42,2.38,3.74,3.58,7,3.58a11.68,11.68,0,0,0,8.47-3.58Q786.19,447.47,787.59,440.87Z"/><path class="cls-3" d="M813.58,421.39h8.56l9.75,27.27,5.81-27.27h7.6L837,460.46h-8.16l-10.07-27.75-5.89,27.75h-7.6Z"/><path class="cls-3" d="M887.91,428.31H867.24l-1.75,8.29h19L883,443.39H864l-2.12,10h21.62l-1.48,7h-29.6l8.3-39.07h28.64Z"/><path class="cls-3" d="M918.63,460.46l8.3-39.07H935l-3.18,14.9h15.26l3.18-14.9h8.11l-8.29,39.07H942L945.66,443H930.4l-3.69,17.44Z"/><path class="cls-3" d="M985,421.39h9.22l5.54,39.07h-8.85l-.83-8H975.65l-4.39,8h-8.54Zm-5.68,24.3h9.92l-1.62-15.36Z"/><path class="cls-3" d="M1020.72,448.4a7,7,0,0,0,.61,4q1.49,2.42,6.31,2.41a15.79,15.79,0,0,0,4.82-.63,6,6,0,0,0,4.37-4.53,2.67,2.67,0,0,0-1.06-3,14.57,14.57,0,0,0-4.92-1.83l-3.95-.93c-3.87-.92-6.47-1.91-7.79-3q-3.37-2.7-2.15-8.45a14.47,14.47,0,0,1,5.67-8.72q4.56-3.48,11.95-3.47,6.18,0,9.83,3.27T1047,433h-7.85q.56-3.52-2-5a9.13,9.13,0,0,0-4.54-1,10.28,10.28,0,0,0-5.31,1.27,5.27,5.27,0,0,0-2.64,3.55,2.69,2.69,0,0,0,1.2,3.13,18.19,18.19,0,0,0,4.74,1.61l6.39,1.62a13.79,13.79,0,0,1,6.07,2.84q2.91,2.74,1.8,8a14.53,14.53,0,0,1-6,8.89q-4.85,3.54-12.32,3.54-7.63,0-11.27-3.48t-2.33-9.58Z"/><path class="cls-3" d="M1096.23,421.39h9.22l5.54,39.07h-8.85l-.82-8h-14.39l-4.4,8H1074Zm-5.67,24.3h9.91l-1.61-15.36Z"/><path class="cls-3" d="M1152.69,448.4a7,7,0,0,0,.61,4q1.48,2.42,6.31,2.41a15.79,15.79,0,0,0,4.82-.63,6,6,0,0,0,4.37-4.53,2.67,2.67,0,0,0-1.06-3,14.55,14.55,0,0,0-4.93-1.83l-3.94-.93c-3.87-.92-6.47-1.91-7.8-3q-3.36-2.7-2.14-8.45a14.47,14.47,0,0,1,5.67-8.72q4.56-3.48,12-3.47,6.18,0,9.83,3.27t2.55,9.5h-7.85q.56-3.52-2-5a9.06,9.06,0,0,0-4.53-1,10.28,10.28,0,0,0-5.31,1.27,5.27,5.27,0,0,0-2.64,3.55,2.7,2.7,0,0,0,1.19,3.13,18.16,18.16,0,0,0,4.75,1.61l6.38,1.62a13.68,13.68,0,0,1,6.07,2.84q2.93,2.74,1.81,8a14.53,14.53,0,0,1-6,8.89c-3.24,2.36-7.34,3.54-12.33,3.54s-8.84-1.16-11.26-3.48-3.2-5.52-2.33-9.58Z"/><path class="cls-3" d="M1224.71,421.39l-1.48,6.92h-11.69l-6.81,32.15h-8.22l6.81-32.15h-11.74l1.49-6.92Z"/><path class="cls-3" d="M1258.62,457q-5.37,4.56-13.75,4.56T1233,457q-4.74-5.58-2.49-16.11,2.28-10.72,9.36-16.11,5.37-4.56,13.75-4.56t11.85,4.56q4.77,5.39,2.49,16.11Q1265.73,451.4,1258.62,457Zm1.2-16.11q1.37-6.57-.71-10.16c-1.38-2.4-3.69-3.59-6.93-3.59a11.73,11.73,0,0,0-8.49,3.58q-3.64,3.57-5,10.17c-.93,4.4-.7,7.79.72,10.18s3.73,3.58,7,3.58a11.67,11.67,0,0,0,8.46-3.58Q1258.42,447.47,1259.82,440.87Z"/><path class="cls-3" d="M1314.56,425.13a9.58,9.58,0,0,1,1.31,3.29,10.31,10.31,0,0,1-.12,4.11,14.66,14.66,0,0,1-2.58,5.47,10.57,10.57,0,0,1-5.45,3.8,5.4,5.4,0,0,1,3.17,3.09c.46,1.33.41,3.37-.18,6.1l-.55,2.63a22.11,22.11,0,0,0-.56,3.63,2.53,2.53,0,0,0,1,2.22l-.19,1h-9c-.07-.87-.11-1.57-.11-2.1a18.87,18.87,0,0,1,.37-3.36l.72-3.63q.74-3.74-.3-5c-.7-.83-2.25-1.24-4.66-1.24H1289l-3.24,15.32h-8l8.29-39.07h19.16a16.19,16.19,0,0,1,6.1,1A7.43,7.43,0,0,1,1314.56,425.13Zm-21.92,3.05-2.22,10.49h9.24a11.47,11.47,0,0,0,4.27-.63,5.72,5.72,0,0,0,3.39-4.4q.75-3.56-1.35-4.77a8,8,0,0,0-3.84-.69Z"/><path class="cls-3" d="M1353,421.39h9.25L1344,445.77l-3.1,14.69h-8.16l3.1-14.69-8.33-24.38h9.62l4.48,17Z"/><path class="cls-1" d="M502.84,289.68a82,82,0,0,0-36.49-53.29c-20.3-13-44.84-17-69.1-11.28C375.59,230.23,357.17,244,345.38,264a86.51,86.51,0,0,0-9.18,66.77c9.84,35.57,41.54,60.44,78.89,61.87,24.12.93,49.23,4.29,69.52,22.34l0,0c1.49,1.33,6.08,6,10.45,10.57a5.42,5.42,0,0,0,9.31-3.76c0-7.27,0-15.18,0-17.29C504.32,392,505.52,303,502.84,289.68ZM484.72,371q0,6.68,0,13.38a3.41,3.41,0,0,1-5,3c-21.93-11.3-45-13.75-65.13-14.56-35.3-1.42-62.33-31.4-61.54-68.27.71-33.44,30.35-61.84,64.71-62h.41c18.6,0,35.55,6.65,47.74,18.75s18.83,28.76,18.88,47.1C484.83,329.23,484.77,350.44,484.72,371Z"/></svg>