<svg xmlns="http://www.w3.org/2000/svg" xmlns:xlink="http://www.w3.org/1999/xlink" width="42" height="42" viewBox="0 0 42 42">
  <defs>
    <filter id="Rectangle_528" x="0" y="0" width="42" height="42" filterUnits="userSpaceOnUse">
      <feOffset input="SourceAlpha"/>
      <feGaussianBlur stdDeviation="3" result="blur"/>
      <feFlood flood-opacity="0.282"/>
      <feComposite operator="in" in2="blur"/>
      <feComposite in="SourceGraphic"/>
    </filter>
  </defs>
  <g id="Layer_2" data-name="Layer 2" transform="translate(9 9)">
    <g id="people">
      <g transform="matrix(1, 0, 0, 1, -9, -9)" filter="url(#Rectangle_528)">
        <rect id="Rectangle_528-2" data-name="Rectangle 528" width="24" height="24" transform="translate(9 9)" fill="#ff9016" opacity="0"/>
      </g>
      <path id="Path_1295" data-name="Path 1295" d="M9,11A4,4,0,1,0,5,7a4,4,0,0,0,4,4Z" fill="#ff9016"/>
      <path id="Path_1296" data-name="Path 1296" d="M17,13a3,3,0,1,0-3-3A3,3,0,0,0,17,13Z" fill="#ff9016"/>
      <path id="Path_1297" data-name="Path 1297" d="M21,20a1,1,0,0,0,1-1,5,5,0,0,0-8.06-3.95A7,7,0,0,0,2,20a1,1,0,0,0,1,1H15a1,1,0,0,0,1-1" fill="#ff9016"/>
    </g>
  </g>
</svg>
