<svg xmlns="http://www.w3.org/2000/svg" width="39.912" height="39.833" viewBox="0 0 39.912 39.833">
  <g id="Group_2591" data-name="Group 2591" transform="translate(-0.001 -0.001)">
    <path id="Path_2126" data-name="Path 2126" d="M-231.319-546.458v-2.334q.048-.42.1-.84a19.569,19.569,0,0,1,4.889-11.128,19.553,19.553,0,0,1,14.134-6.756,19,19,0,0,1,11.006,2.776,19.624,19.624,0,0,1,9.476,13.687c.14.747.209,1.507.311,2.261v2.334c-.032.28-.064.56-.1.84a19.66,19.66,0,0,1-5.012,11.272,19.584,19.584,0,0,1-11.411,6.328c-.751.133-1.512.208-2.268.31h-2.339a2.145,2.145,0,0,0-.3-.064,19.017,19.017,0,0,1-8.707-2.741,19.658,19.658,0,0,1-9.469-13.685C-231.148-544.945-231.217-545.7-231.319-546.458Zm37.91-1.165a17.938,17.938,0,0,0-17.932-17.921,17.942,17.942,0,0,0-17.975,17.916,17.938,17.938,0,0,0,17.932,17.921A17.942,17.942,0,0,0-193.409-547.623Z" transform="translate(231.32 567.541)" fill="#ff9016"/>
    <path id="Path_2127" data-name="Path 2127" d="M-94.447-450.858v-.422q0-7.021,0-14.042c0-.829.363-1.306,1-1.313s1.017.475,1.017,1.331q0,7.021,0,14.042v.493c.148-.133.243-.211.329-.3,1.149-1.145,2.293-2.3,3.45-3.433a1.486,1.486,0,0,1,.576-.369.944.944,0,0,1,1.106.44,1,1,0,0,1-.146,1.187c-.419.443-.858.867-1.29,1.3q-2.08,2.077-4.162,4.153a1.067,1.067,0,0,1-1.72.011q-2.663-2.651-5.322-5.305a1.126,1.126,0,0,1-.416-.956.907.907,0,0,1,.626-.816,1.014,1.014,0,0,1,1.106.269q1.731,1.738,3.471,3.467c.1.1.182.215.272.323Z" transform="translate(113.397 476.905)" fill="#ff9016"/>
  </g>
</svg>
