<svg xmlns="http://www.w3.org/2000/svg" width="193.9" height="257.816" viewBox="0 0 193.9 257.816">
  <path id="Path_2143" data-name="Path 2143" d="M1175.341,567.189q0-50.461-.028-100.922c-.018-9.531,2.064-18.015,10.664-23.53,7.453-4.781,15.289-5.439,23.287-1.461a52.621,52.621,0,0,1,7.107,4.449Q1286.3,495.8,1356.213,545.881c8.029,5.734,13.5,12.584,12.964,23.013-.4,7.918-4.194,13.92-10.47,18.425q-72.49,52.042-145.036,104.012c-8.013,5.74-16.752,6.926-25.583,2.357-9.423-4.876-12.787-13.369-12.768-23.636Q1175.414,618.622,1175.341,567.189Z" transform="translate(-1175.313 -438.673)" fill="#ff9016"/>
</svg>
