<svg id="play-button" xmlns="http://www.w3.org/2000/svg" width="12.351" height="14.126" viewBox="0 0 12.351 14.126">
  <path id="Path_431" data-name="Path 431" d="M13.458,5.64,3.93.218A1.308,1.308,0,0,0,1.889,1.406v11.32a1.252,1.252,0,0,0,1.208,1.4,1.6,1.6,0,0,0,.83-.255L13.5,8.013a1.4,1.4,0,0,0,.743-1.2A1.4,1.4,0,0,0,13.458,5.64Zm-.6,1.326-9.57,5.857a.609.609,0,0,1-.15.069.636.636,0,0,1-.019-.166V1.407a.91.91,0,0,1,.021-.19.48.48,0,0,1,.186.069l9.526,5.423c.117.067.152.125.164.113A.412.412,0,0,1,12.856,6.967Z" transform="translate(-1.889 0)" fill="#fff"/>
</svg>
