<svg xmlns="http://www.w3.org/2000/svg" width="13.342" height="13.368" viewBox="0 0 13.342 13.368">
  <g id="Group_2497" data-name="Group 2497" transform="translate(558.401 47.4)">
    <path id="Path_2124" data-name="Path 2124" d="M-551.73-47.4v1.482h-5.177v10.389h10.357v-5.177h1.49v5.089a1.479,1.479,0,0,1-1.268,1.568.154.154,0,0,0-.035.017H-557.1a.545.545,0,0,0-.073-.024,1.379,1.379,0,0,1-.978-.647,3.939,3.939,0,0,1-.252-.635V-46.095c.009-.033.019-.066.026-.1a1.385,1.385,0,0,1,.633-.947,4.122,4.122,0,0,1,.644-.26Z" fill="#292e33"/>
    <path id="Path_2125" data-name="Path 2125" d="M-467.423-47.4v5.188H-468.9v-2.61l-7.251,7.265-1.08-1.082,7.257-7.271h-2.632V-47.4Z" transform="translate(-77.636)" fill="#292e33"/>
  </g>
</svg>
