<svg id="synchronize" xmlns="http://www.w3.org/2000/svg" width="24" height="24" viewBox="0 0 24 24">
  <path id="Path_2103" data-name="Path 2103" d="M13.75,7H13V5A5,5,0,0,0,3,5V7H2.25A2.253,2.253,0,0,0,0,9.25v8.5A2.253,2.253,0,0,0,2.25,20h9.8a2.786,2.786,0,0,1,.79-1.48,2.987,2.987,0,0,1-.23-3.19A7.223,7.223,0,0,1,16,12.16V9.25A2.253,2.253,0,0,0,13.75,7ZM5,5a3,3,0,0,1,6,0V7H5Z" fill="#fff"/>
  <path id="Path_2104" data-name="Path 2104" d="M23.226,19.88a1,1,0,0,0-1.355.4A3.226,3.226,0,0,1,17.3,21.506l.476-.476a.75.75,0,0,0-.53-1.28h-2.5a.75.75,0,0,0-.75.75V23a.751.751,0,0,0,.463.693.738.738,0,0,0,.287.057.746.746,0,0,0,.53-.22l.573-.573a5.262,5.262,0,0,0,7.776-1.721,1,1,0,0,0-.4-1.356Z" fill="#fff"/>
  <path id="Path_2105" data-name="Path 2105" d="M23.537,13.807a.749.749,0,0,0-.817.163l-.573.573a5.257,5.257,0,0,0-7.778,1.733,1,1,0,0,0,1.762.947A3.22,3.22,0,0,1,20.7,15.994l-.476.476a.75.75,0,0,0,.53,1.28h2.5A.75.75,0,0,0,24,17V14.5A.751.751,0,0,0,23.537,13.807Z" fill="#fff"/>
</svg>
