<svg xmlns="http://www.w3.org/2000/svg" width="33.164" height="39.751" viewBox="0 0 33.164 39.751">
  <g id="user" transform="translate(0 0)">
    <path id="Path_1721" data-name="Path 1721" d="M96.606,19.148a9.264,9.264,0,0,0,6.77-2.8,9.264,9.264,0,0,0,2.8-6.769,9.265,9.265,0,0,0-2.8-6.769,9.572,9.572,0,0,0-13.539,0,9.264,9.264,0,0,0-2.8,6.769,9.264,9.264,0,0,0,2.805,6.77A9.266,9.266,0,0,0,96.606,19.148Zm0,0" transform="translate(-80.275)" fill="#fff"/>
    <path id="Path_1722" data-name="Path 1722" d="M33.084,258.681a23.648,23.648,0,0,0-.322-2.512,19.79,19.79,0,0,0-.618-2.525,12.473,12.473,0,0,0-1.038-2.355,8.888,8.888,0,0,0-1.565-2.04,6.9,6.9,0,0,0-2.249-1.413,7.772,7.772,0,0,0-2.871-.52,2.914,2.914,0,0,0-1.556.66c-.466.3-1.012.656-1.621,1.045a9.287,9.287,0,0,1-2.1.924,8.144,8.144,0,0,1-5.131,0,9.267,9.267,0,0,1-2.1-.924c-.6-.385-1.149-.737-1.623-1.046a2.91,2.91,0,0,0-1.555-.66,7.762,7.762,0,0,0-2.87.52,6.9,6.9,0,0,0-2.249,1.413,8.888,8.888,0,0,0-1.565,2.04,12.5,12.5,0,0,0-1.038,2.355A19.835,19.835,0,0,0,.4,256.17a23.565,23.565,0,0,0-.322,2.513c-.053.761-.079,1.55-.079,2.347a6.6,6.6,0,0,0,1.96,4.994,7.057,7.057,0,0,0,5.052,1.843h19.14a7.055,7.055,0,0,0,5.051-1.843,6.6,6.6,0,0,0,1.961-4.994c0-.8-.027-1.591-.08-2.348Zm0,0" transform="translate(0 -228.115)" fill="#fff"/>
  </g>
</svg>
