<svg xmlns="http://www.w3.org/2000/svg" width="31.643" height="31.646" viewBox="0 0 31.643 31.646">
  <g id="Group_2590" data-name="Group 2590" transform="translate(-863.687 -575.413)">
    <g id="Group_2589" data-name="Group 2589">
      <path id="Path_1689" data-name="Path 1689" d="M879.443,676.523q-6.129,0-12.258,0a3.187,3.187,0,0,1-3.494-3.464q0-7.084,0-14.169a3.192,3.192,0,0,1,3.435-3.463q12.357,0,24.714,0a3.189,3.189,0,0,1,3.493,3.531q0,7.018,0,14.037a3.185,3.185,0,0,1-3.5,3.524Q885.638,676.525,879.443,676.523Zm-4.15-10.545c0,1.207,0,2.413,0,3.62a2.244,2.244,0,0,0,1.181,2.127,2.205,2.205,0,0,0,2.369-.13c1.95-1.223,3.911-2.429,5.847-3.673a2.218,2.218,0,0,0-.005-3.9q-2.935-1.88-5.91-3.7a2.232,2.232,0,0,0-3.478,1.968C875.282,663.52,875.293,664.749,875.293,665.978Z" transform="translate(0 -69.465)" fill="#ff9016"/>
      <path id="Path_1690" data-name="Path 1690" d="M912.983,611.64H887.81c-.406-2.548.973-4.192,3.489-4.193h18.109C912.006,607.448,913.343,609,912.983,611.64Z" transform="translate(-20.883 -27.811)" fill="#ff9016"/>
      <path id="Path_1691" data-name="Path 1691" d="M913.89,577.5a2.833,2.833,0,0,1,2.686-2.064q6.519-.042,13.039,0a2.832,2.832,0,0,1,2.68,2.063Z" transform="translate(-43.584)" fill="#ff9016"/>
    </g>
    <path id="Path_1692" data-name="Path 1692" d="M968.117,705.145l6.4,4-6.4,4Z" transform="translate(-90.664 -112.63)" fill="#ff9016"/>
  </g>
</svg>
