<svg xmlns="http://www.w3.org/2000/svg" width="16.93" height="11.543" viewBox="0 0 16.93 11.543">
  <g id="visibility" transform="translate(0)">
    <g id="Group_2101" data-name="Group 2101" transform="translate(0 0)">
      <g id="Group_2100" data-name="Group 2100">
        <path id="Path_1713" data-name="Path 1713" d="M172.976,170.667a2.309,2.309,0,1,0,2.309,2.309A2.31,2.31,0,0,0,172.976,170.667Z" transform="translate(-164.511 -167.204)" fill="#292e33"/>
        <path id="Path_1714" data-name="Path 1714" d="M8.465,74.667A9.1,9.1,0,0,0,0,80.439a9.094,9.094,0,0,0,16.93,0A9.1,9.1,0,0,0,8.465,74.667Zm0,9.619a3.848,3.848,0,1,1,3.848-3.848A3.849,3.849,0,0,1,8.465,84.286Z" transform="translate(0 -74.667)" fill="#292e33"/>
      </g>
    </g>
  </g>
</svg>
